# ###############################
# Obj file written by RoadKill1_1
# RoadKill by Andy Swann
# http://www.pullin-shapes.co.uk/
# ###############################
g RoadKillOut
o RoadKillOut
# 64 Vertex coords
v 1.217434 0.853777 -3.264551
v 1.217434 0.541240 -3.264551
v 1.217434 0.853777 3.264551
v 1.217434 0.541240 3.264551
v 0.769800 0.853777 -3.264551
v 0.769800 0.541240 -3.264551
v 0.769800 0.853777 3.264551
v 0.769800 0.541240 3.264551
v 0.769800 0.541240 3.500535
v 0.769800 0.853777 3.500535
v 1.217434 0.853777 3.500535
v 1.217434 0.541240 3.500535
v 1.217434 0.541240 -3.512800
v 0.769800 0.541240 -3.512800
v 1.217434 0.853777 -3.512800
v 0.769800 0.853777 -3.512800
v -0.831039 0.853777 -3.264551
v -0.831039 0.541240 -3.264551
v -0.831039 0.853777 -3.512800
v -0.831039 0.541240 -3.512800
v -1.242147 0.853777 -3.264551
v -1.242147 0.541240 -3.264551
v -1.242147 0.853777 -3.512800
v -1.242147 0.541240 -3.512800
v 1.217434 -0.564101 -3.264551
v 0.769800 -0.564101 -3.264551
v 1.217434 -0.564101 -3.512800
v 0.769800 -0.564101 -3.512800
v -0.831039 -0.564101 -3.512800
v -0.831039 -0.564101 -3.264551
v -1.242147 -0.564101 -3.512800
v -1.242147 -0.564101 -3.264551
v 1.217434 -0.897609 -3.264551
v 0.769800 -0.897609 -3.264551
v 1.217434 -0.897609 -3.512800
v 0.769800 -0.897609 -3.512800
v -0.831039 -0.897609 -3.512800
v -0.831039 -0.897609 -3.264551
v -1.242147 -0.897609 -3.512800
v -1.242147 -0.897609 -3.264551
v -0.831039 0.853777 3.262677
v -0.831039 0.541240 3.262677
v -1.242147 0.853777 3.262677
v -1.242147 0.541240 3.262677
v 1.217434 -0.564101 3.262677
v 0.769800 -0.564101 3.262677
v -1.242147 -0.564101 3.262677
v -0.831039 -0.564101 3.262677
v 1.217434 -0.897609 3.262677
v 0.769800 -0.897609 3.262677
v -1.242147 -0.897609 3.262677
v -0.831039 -0.897609 3.262677
v -0.831039 0.853777 3.500897
v -0.831039 0.541240 3.500897
v -1.242147 0.853777 3.500897
v -1.242147 0.541240 3.500897
v 1.217434 -0.564101 3.500897
v 0.769800 -0.564101 3.500897
v -1.242147 -0.564101 3.500897
v -0.831039 -0.564101 3.500897
v 1.217434 -0.897609 3.500897
v 0.769800 -0.897609 3.500897
v -1.242147 -0.897609 3.500897
v -0.831039 -0.897609 3.500897

# 10 Normal vectors
vn 0.000000 1.000000 0.000000
vn -1.000000 0.000000 0.000000
vn 0.000000 -1.000000 0.000000
vn 1.000000 0.000000 0.000000
vn 0.000000 0.000000 1.000000
vn 0.000000 0.000000 -1.000000
vn 0.001200 0.000000 -0.999999
vn 0.000000 0.001700 -0.999999
vn 0.000200 0.000000 1.000000
vn 0.000000 0.000300 1.000000

# 158 texture coords
vt 0.893685 0.000001 0.00
vt 0.895380 0.045032 0.00
vt 0.486875 0.045914 0.00
vt 0.486855 0.000000 0.00
vt 0.098719 0.920759 0.00
vt 0.116799 0.940116 0.00
vt 0.000000 0.939837 0.00
vt 0.024170 0.913837 0.00
vt 0.484380 0.257510 0.00
vt 0.451427 0.217817 0.00
vt 0.843092 0.216114 0.00
vt 0.811161 0.269671 0.00
vt 0.341607 0.579480 0.00
vt 0.397845 0.628467 0.00
vt 0.000000 0.599454 0.00
vt 0.047945 0.549068 0.00
vt 0.470750 0.686938 0.00
vt 0.470751 0.715901 0.00
vt 0.249816 0.703367 0.00
vt 0.249815 0.674403 0.00
vt 0.493756 0.686937 0.00
vt 0.493757 0.715901 0.00
vt 0.227945 0.674404 0.00
vt 0.227947 0.703368 0.00
vt 0.186462 0.703372 0.00
vt 0.186460 0.674407 0.00
vt 0.466266 0.045592 0.00
vt 0.463570 0.001422 0.00
vt 0.092790 0.819661 0.00
vt 0.116959 0.793654 0.00
vt 0.535239 0.686937 0.00
vt 0.535239 0.715900 0.00
vt 0.916969 0.044858 0.00
vt 0.914943 0.170805 0.00
vt 0.892777 0.170201 0.00
vt 0.435003 0.628467 0.00
vt 0.397845 0.463019 0.00
vt 0.435003 0.463019 0.00
vt 0.917975 0.000307 0.00
vt 0.916845 0.213040 0.00
vt 0.892162 0.213945 0.00
vt 0.683589 0.686938 0.00
vt 0.683589 0.715901 0.00
vt 0.859452 0.430316 0.00
vt 0.813674 0.383615 0.00
vt 0.741675 0.792044 0.00
vt 0.761121 0.768417 0.00
vt 0.861497 0.772666 0.00
vt 0.889996 0.792044 0.00
vt 0.778201 0.831239 0.00
vt 0.776323 0.794712 0.00
vt 0.805336 0.793220 0.00
vt 0.807215 0.829747 0.00
vt 0.480813 0.643377 0.00
vt 0.480813 0.673967 0.00
vt 0.247471 0.661004 0.00
vt 0.247470 0.630412 0.00
vt 0.945051 0.438686 0.00
vt 0.982504 0.435866 0.00
vt 0.995062 0.602629 0.00
vt 0.957608 0.605450 0.00
vt 0.721686 0.686938 0.00
vt 0.721686 0.715901 0.00
vt 0.430741 0.216114 0.00
vt 0.406184 0.430094 0.00
vt 0.372285 0.389096 0.00
vt 0.376832 0.278157 0.00
vt 0.900413 0.559105 0.00
vt 0.542957 0.605450 0.00
vt 0.606837 0.546955 0.00
vt 0.903323 0.491338 0.00
vt 0.857778 0.698029 0.00
vt 0.877224 0.674403 0.00
vt 0.502005 0.628467 0.00
vt 0.502005 0.463019 0.00
vt 0.728903 0.674403 0.00
vt 0.757401 0.693780 0.00
vt 0.349925 0.513378 0.00
vt 0.893235 0.875973 0.00
vt 0.862457 0.875973 0.00
vt 0.862457 0.793220 0.00
vt 0.893235 0.793220 0.00
vt 0.430384 0.213974 0.00
vt 0.430324 0.168091 0.00
vt 0.451967 0.168370 0.00
vt 0.454803 0.212401 0.00
vt 0.455205 0.043170 0.00
vt 0.433446 0.043870 0.00
vt 0.431545 0.000254 0.00
vt 0.456857 0.001252 0.00
vt 0.503583 0.673967 0.00
vt 0.503583 0.643377 0.00
vt 0.023327 0.213974 0.00
vt 0.021645 0.168980 0.00
vt 0.729170 0.673967 0.00
vt 0.691465 0.673967 0.00
vt 0.691465 0.643379 0.00
vt 0.729171 0.643379 0.00
vt 0.435413 0.794650 0.00
vt 0.463651 0.793220 0.00
vt 0.465572 0.831157 0.00
vt 0.437333 0.832587 0.00
vt 0.544640 0.673967 0.00
vt 0.544640 0.643378 0.00
vt 0.496887 0.793220 0.00
vt 0.498765 0.829747 0.00
vt 0.470924 0.831178 0.00
vt 0.469046 0.794652 0.00
vt 0.483416 0.170576 0.00
vt 0.462416 0.171033 0.00
vt 0.018258 0.812767 0.00
vt 0.000000 0.793220 0.00
vt 0.056304 0.482952 0.00
vt 0.000077 0.433959 0.00
vt 0.147147 0.831157 0.00
vt 0.145226 0.793220 0.00
vt 0.485503 0.213744 0.00
vt 0.435048 0.430316 0.00
vt 0.483523 0.369301 0.00
vt 0.046350 0.263726 0.00
vt 0.000000 0.216114 0.00
vt 0.605995 0.480118 0.00
vt 0.565075 0.438726 0.00
vt 0.024216 0.044250 0.00
vt 0.024665 0.000000 0.00
vt 0.008748 0.431802 0.00
vt 0.043999 0.377133 0.00
vt 0.038100 0.674420 0.00
vt 0.038102 0.703385 0.00
vt 0.000003 0.703388 0.00
vt 0.000000 0.674424 0.00
vt 0.037712 0.661008 0.00
vt 0.000000 0.661009 0.00
vt 0.000000 0.630416 0.00
vt 0.037711 0.630415 0.00
vt 0.225619 0.661004 0.00
vt 0.184559 0.661005 0.00
vt 0.184558 0.630413 0.00
vt 0.225619 0.630413 0.00
vt 0.120049 0.832529 0.00
vt 0.118129 0.794592 0.00
vt 0.461426 0.213508 0.00
vt 0.000000 0.213684 0.00
vt 0.000987 0.169128 0.00
vt 0.003124 0.043639 0.00
vt 0.000320 0.001625 0.00
vt 0.861803 0.875973 0.00
vt 0.844136 0.875973 0.00
vt 0.844109 0.793220 0.00
vt 0.861943 0.793220 0.00
vt 0.810623 0.875984 0.00
vt 0.810596 0.793231 0.00
vt 0.507025 0.600683 0.00
vt 0.529144 0.433959 0.00
vt 0.924321 0.875973 0.00
vt 0.893543 0.875973 0.00
vt 0.893543 0.793220 0.00
vt 0.924321 0.793220 0.00

# 72 Faces
f  1/1/1  5/2/1  7/3/1  3/4/1 
f  9/5/2  8/6/2  46/7/2  58/8/2 
f  8/9/2  7/10/2  5/11/2  6/12/2 
f  6/13/3  2/14/3  4/15/3  8/16/3 
f  2/17/4  1/18/4  3/19/4  4/20/4 
f  1/18/4  2/17/4  13/21/4  15/22/4 
f  12/23/5  11/24/5  10/25/5  9/26/5 
f  3/4/1  7/3/1  10/27/1  11/28/1 
f  4/20/4  3/19/4  11/24/4  12/23/4 
f  9/5/3  54/29/3  42/30/3  8/6/3 
f  14/31/6  16/32/6  15/22/6  13/21/6 
f  5/2/1  16/33/1  19/34/1  17/35/1 
f  13/36/4  2/14/4  25/37/4  27/38/4 
f  5/2/1  1/1/1  15/39/1  16/33/1 
f  17/35/1  19/34/1  23/40/1  21/41/1 
f  16/32/6  14/31/6  20/42/6  19/43/6 
f  6/12/5  5/11/5  17/44/5  18/45/5 
f  14/46/3  6/47/3  18/48/3  20/49/3 
f  22/50/2  21/51/2  23/52/2  24/53/2 
f  33/54/4  25/55/4  45/56/4  49/57/4 
f  22/58/2  24/59/2  31/60/2  32/61/2 
f  19/43/6  20/42/6  24/62/6  23/63/6 
f  38/64/5  34/65/5  26/66/5  30/67/5 
f  30/68/1  32/61/1  47/69/1  48/70/1 
f  18/71/5  22/58/5  32/61/5  30/68/5 
f  20/49/4  18/48/4  30/72/4  29/73/4 
f  14/74/6  13/36/6  27/38/6  28/75/6 
f  6/47/2  14/46/2  28/76/2  26/77/2 
f  2/14/5  6/13/5  26/78/5  25/37/5 
f  24/79/6  20/80/6  29/81/6  31/82/6 
f  33/83/3  34/84/3  36/85/3  35/86/3 
f  37/87/3  38/88/3  40/89/3  39/90/3 
f  27/91/4  25/55/4  33/54/4  35/92/4 
f  34/84/3  33/83/3  49/93/3  50/94/3 
f  31/95/6  29/96/6  37/97/6  39/98/6 
f  32/99/2  31/100/2  39/101/2  40/102/2 
f  26/77/1  28/76/1  29/73/1  30/72/1 
f  28/103/6  27/91/6  35/92/6  36/104/6 
f  34/84/3  38/88/3  37/87/3  36/85/3 
f  37/97/6  29/96/6  28/103/6  36/104/6 
f  43/105/2  44/106/2  56/107/2  55/108/2 
f  7/3/1  41/109/1  53/110/1  10/27/1 
f  60/111/4  48/112/4  42/30/4  54/29/4 
f  25/37/1  26/78/1  46/113/1  45/114/1 
f  32/99/2  40/102/2  51/115/2  47/116/2 
f  17/35/1  21/41/1  43/117/1  41/109/1 
f  18/45/4  17/44/4  41/118/4  42/119/4 
f  38/64/4  30/67/4  48/120/4  52/121/4 
f  22/58/3  18/71/3  42/122/3  44/123/3 
f  40/89/3  38/88/3  52/124/3  51/125/3 
f  26/66/2  34/65/2  50/126/2  46/127/2 
f  21/51/2  22/50/2  44/106/2  43/105/2 
f  54/128/5  53/129/5  55/130/5  56/131/5 
f  60/132/5  59/133/5  63/134/5  64/135/5 
f  57/136/5  58/137/5  62/138/5  61/139/5 
f  47/116/2  51/115/2  63/140/2  59/141/2 
f  42/122/6  48/70/6  47/69/6  44/123/6 
f  41/109/1  43/117/1  55/142/1  53/110/1 
f  8/9/7  42/119/7  41/118/7  7/10/7 
f  50/94/3  49/93/3  61/143/3  62/144/3 
f  8/16/8  4/15/8  45/114/8  46/113/8 
f  49/57/4  45/56/4  57/136/4  61/139/4 
f  9/26/9  10/25/9  53/129/9  54/128/9 
f  51/125/3  52/124/3  64/145/3  63/146/3 
f  52/121/6  48/120/6  46/127/6  50/126/6 
f  50/94/3  62/144/3  64/145/3  52/124/3 
f  46/7/1  48/112/1  60/111/1  58/8/1 
f  64/135/5  62/138/5  58/137/5  60/132/5 
f  4/147/4  12/148/4  57/149/4  45/150/4 
f  9/151/10  58/152/10  57/149/10  12/148/10 
f  44/123/2  47/69/2  59/153/2  56/154/2 
f  54/155/5  56/156/5  59/157/5  60/158/5 
